<?xml version="1.0" encoding="utf-8"?>
<!-- Generator: Adobe Illustrator 20.0.0, SVG Export Plug-In . SVG Version: 6.00 Build 0)  -->
<svg version="1.1" id="Layer_1" xmlns="http://www.w3.org/2000/svg" xmlns:xlink="http://www.w3.org/1999/xlink" x="0px" y="0px"
	 viewBox="0 0 1440 1080" style="enable-background:new 0 0 1440 1080;" xml:space="preserve">
<style type="text/css">
	.st0{fill:#FFFFFF;}
	.st1{fill:#E05798;}
</style>
<g>
	<path class="st0" d="M786.2,182.3h50.7v127.7c0,17.9-2.7,34.4-8.2,49.3c-5.5,15-13.5,27.8-24.1,38.6
		c-10.6,10.8-23.7,19.1-39.5,24.8c-15.7,5.7-33.3,8.6-52.8,8.6c-19.4,0-37-2.9-52.8-8.6c-15.7-5.7-28.9-14-39.5-24.8
		c-10.6-10.8-18.6-23.7-24.1-38.6c-5.5-15-8.2-31.4-8.2-49.3V182.3h50.7v123.5c0,24.4,6.4,43.4,19.2,56.9
		c12.8,13.6,31,20.4,54.7,20.4c23.7,0,41.9-6.8,54.7-20.4c12.8-13.6,19.2-32.6,19.2-56.9V182.3z"/>
	<path class="st0" d="M930.6,431.4h-52.9V182.3h52.9V431.4z"/>
	<path class="st0" d="M1123.4,182.3c24,0,45.9,2.9,65.8,8.7c19.9,5.8,36.9,14.1,51,25.1c14.1,10.9,24.9,24.3,32.4,40
		c7.5,15.7,11.3,33.2,11.3,52.4c0,19.2-3.8,36.7-11.3,52.4c-7.5,15.7-18.4,29.1-32.4,40c-14.1,10.9-31.1,19.3-51,25.1
		c-19.9,5.8-41.8,8.7-65.8,8.7H985.5V182.3H1123.4z M1119,385.6c15.6,0,29.8-1.6,42.6-4.9c12.9-3.2,23.9-8,33.2-14.4
		c9.3-6.4,16.4-14.5,21.3-24.3c4.9-9.9,7.4-21,7.4-33.5c0-9.4-1.7-18.7-5-27.9c-3.3-9.2-9.1-17.5-17.2-24.7
		c-8.2-7.2-19-13.1-32.6-17.7c-13.6-4.6-30.2-6.8-49.7-6.8h-74.2v154.3H1119z"/>
	<path class="st0" d="M50.3,431.8v-50.9h176.6c6.7,0,13.3-2.6,17.9-7.5c6.2-6.6,5.8-13.4,5.8-13.4c1.7-12.9-4.9-20.3-11.6-24.5
		c-5.3-3.3-11.5-4.9-17.7-4.9H120.6c-14.3,0-28.3-4.7-39.7-13.5c-0.7-0.6-1.1-0.9-1.1-0.9c-37.4-33-29.2-68.9-27.9-73.6
		c0.2-0.6,0.3-1.2,0.5-1.8c8.4-33.3,30.8-48,46.6-54.4c7.7-3.1,16-4.7,24.3-4.7l151.9-0.1v49.4H124.8c-2.6,0-5.1,0.3-7.5,1.1
		c-5.9,1.9-9.8,5.6-12.3,9.4c-5.4,8.1-5.9,18.7-1.1,27.2c2.5,4.5,5.9,7.4,9.3,9.4c4.2,2.5,9,3.7,13.9,3.8l107.9,1.2
		c11.2,0.1,22.2,3.5,31.5,9.7c1.5,1,2.4,1.7,2.4,1.7c47.4,37.4,26.9,88.5,26.9,88.5c-22.7,49-59.7,48.7-59.7,48.7H50.3z"/>
	<circle class="st0" cx="438.6" cy="307" r="125"/>
	<circle class="st1" cx="439.2" cy="306.9" r="74.7"/>
	<path class="st0" d="M636.1,753.3L712,596l74.1,157.4l125-262.1l-55.6-0.8l-67.5,143.1L712,479.4l-74.4,151.9L480.5,307l-66.2,1.4
		c0,0,84.8,146.2,122.9,239.4L636.1,753.3z"/>
	<polygon class="st0" points="1106.7,741.8 855.6,741.8 981.9,478.7 	"/>
	<polygon class="st1" points="1048.9,741.8 912.3,741.8 981.1,598 	"/>
	<path class="st0" d="M1118.1,741.8V491.2h182.4c0,0,70.2,7.5,67.2,81.2c0,0,2,47.6-56.1,66.7c0,0-21.8,3.1-31.8-0.1l112.7,201.6
		l-50,0.8l-135.8-250l88.7,0.8c0,0,22.4-2.7,22.7-30.6c0,0-0.5-16-22.7-21.9l-127.8,0.6l0.8,201.5H1118.1z"/>
	<path class="st0" d="M901.9,779.9c0.8,0,1.5,0.1,2,0.2c0.5,0.1,1,0.4,1.3,0.8c0.3,0.4,0.6,0.8,0.7,1.4c0.1,0.6,0.2,1.4,0.2,2.3
		c0,0.9-0.1,1.7-0.2,2.3c-0.1,0.6-0.4,1.1-0.7,1.4s-0.8,0.6-1.3,0.8c-0.5,0.1-1.2,0.2-2,0.2h-9c-0.6,0-1.2,0.1-1.6,0.2
		c-0.4,0.1-0.7,0.3-1,0.6c-0.2,0.3-0.4,0.6-0.5,1.1c-0.1,0.5-0.2,1-0.2,1.7v43c0,0.9-0.1,1.7-0.2,2.2c-0.1,0.6-0.4,1.1-0.7,1.4
		c-0.3,0.4-0.8,0.6-1.3,0.8c-0.5,0.1-1.2,0.2-2,0.2h-2.8c-0.8,0-1.5-0.1-2-0.2c-0.5-0.1-1-0.4-1.3-0.8s-0.6-0.8-0.7-1.4
		c-0.1-0.6-0.2-1.3-0.2-2.2v-43c0-0.7-0.1-1.3-0.2-1.7c-0.1-0.5-0.3-0.8-0.5-1.1c-0.2-0.3-0.6-0.5-1-0.6c-0.4-0.1-0.9-0.2-1.6-0.2
		h-9c-0.8,0-1.5-0.1-2-0.2c-0.5-0.1-1-0.4-1.3-0.8s-0.6-0.8-0.7-1.4c-0.1-0.6-0.2-1.4-0.2-2.3c0-0.9,0.1-1.7,0.2-2.3
		c0.1-0.6,0.4-1.1,0.7-1.4c0.3-0.4,0.8-0.6,1.3-0.8c0.5-0.1,1.2-0.2,2-0.2H901.9z"/>
	<path class="st0" d="M951.5,817c0,3.4-0.5,6.6-1.5,9.4c-1,2.9-2.4,5.3-4.3,7.4c-1.9,2.1-4.2,3.7-7,4.9c-2.8,1.2-5.9,1.7-9.5,1.7
		c-3.5,0-6.6-0.6-9.3-1.7c-2.7-1.1-5-2.7-6.9-4.7c-1.9-2-3.3-4.4-4.3-7.2c-1-2.8-1.5-5.9-1.5-9.2c0-3.4,0.5-6.5,1.5-9.4
		c1-2.9,2.4-5.3,4.3-7.4c1.9-2.1,4.2-3.7,7-4.9c2.8-1.2,6-1.8,9.6-1.8c3.4,0,6.5,0.6,9.2,1.7c2.7,1.2,5,2.8,6.9,4.8
		c1.9,2,3.3,4.5,4.3,7.2C951,810.8,951.5,813.8,951.5,817z M919.3,817.3c0,2,0.2,4,0.6,5.8c0.4,1.9,1,3.5,1.8,4.9
		c0.8,1.4,1.9,2.6,3.1,3.4c1.3,0.8,2.8,1.3,4.6,1.3c1.4,0,2.8-0.3,4-0.9c1.2-0.6,2.3-1.6,3.2-2.8c0.9-1.3,1.6-2.9,2.1-4.8
		c0.5-1.9,0.8-4.2,0.8-6.8c0-2-0.2-3.9-0.6-5.7c-0.4-1.8-1-3.5-1.8-4.9c-0.8-1.4-1.9-2.5-3.1-3.4c-1.3-0.8-2.8-1.3-4.5-1.3
		c-1.8,0-3.3,0.4-4.6,1.3c-1.3,0.8-2.3,2-3.1,3.4c-0.8,1.4-1.4,3-1.8,4.8C919.4,813.4,919.3,815.3,919.3,817.3z"/>
	<g>
		<path class="st0" d="M689.4,779.4c2.8,0,5.5,0.4,7.9,1.2s4.5,1.9,6.3,3.5c1.8,1.5,3.2,3.5,4.2,5.7c1,2.3,1.5,5,1.5,8
			c0,2.2-0.3,4.2-0.8,6.1c-0.6,1.9-1.3,3.5-2.3,5s-2.1,2.8-3.5,4c-1.3,1.1-2.8,2.1-4.3,2.9c-1.5,0.8-3.2,1.3-4.9,1.7
			c-1.7,0.4-3.4,0.6-5.1,0.5l-4.1-0.1c-0.7,0-1.2,0.1-1.6,0.2c-0.4,0.1-0.8,0.3-1,0.6c-0.3,0.3-0.5,0.7-0.6,1.1
			c-0.1,0.5-0.2,1.1-0.2,1.8v16.2c0,0.9-0.1,1.7-0.2,2.3c-0.1,0.6-0.4,1.1-0.7,1.5c-0.3,0.4-0.8,0.6-1.4,0.8
			c-0.6,0.2-1.3,0.2-2.1,0.2h-2.9c-0.9,0-1.6-0.1-2.1-0.2c-0.6-0.2-1-0.4-1.4-0.8c-0.3-0.4-0.6-0.9-0.7-1.5
			c-0.1-0.6-0.2-1.4-0.2-2.3v-53.5c0-0.9,0.1-1.7,0.2-2.3c0.1-0.6,0.4-1.1,0.7-1.5c0.3-0.4,0.8-0.6,1.4-0.8c0.6-0.2,1.3-0.2,2.1-0.2
			H689.4z M684.3,809c1,0,2-0.1,3-0.3c1-0.2,2-0.4,2.9-0.8c0.9-0.4,1.8-0.8,2.7-1.4c0.8-0.6,1.6-1.2,2.2-2c0.6-0.8,1.1-1.7,1.5-2.8
			c0.4-1,0.5-2.2,0.5-3.5c0-1.3-0.2-2.6-0.7-3.7c-0.4-1.1-1.1-2.1-1.9-2.9c-0.8-0.8-1.8-1.4-2.9-1.9c-1.1-0.5-2.4-0.7-3.8-0.7h-3.5
			c-0.7,0-1.2,0.1-1.7,0.2c-0.4,0.1-0.8,0.3-1,0.6c-0.3,0.3-0.4,0.7-0.5,1.1c-0.1,0.5-0.2,1.1-0.2,1.8v12.5c0,0.7,0.1,1.3,0.2,1.8
			c0.1,0.5,0.3,0.9,0.5,1.1c0.3,0.3,0.6,0.5,1,0.6C683.1,808.9,683.7,809,684.3,809z"/>
	</g>
	<path class="st0" d="M723.7,778.3c-2.2,0-4,1.6-4,3.5v54c0,0-0.2,5,3.9,6.4c0.4,0.1,0.9,0.2,1.4,0.2c1.3,0,4.2,0,6.1-0.8
		c0,0,2.9-1.7,1.2-5.5c-0.1-0.3-0.5-0.6-0.9-0.6l0,0c-0.6-0.1-1.1-0.5-1.1-1.1l-0.1-52.6c0-1.9-1.8-3.5-4-3.5H723.7z"/>
	<path class="st0" d="M780.5,834.9v-26.2c-0.1-4.6-2.1-7.6-4.3-9.5c-2.5-2.2-5.7-3.3-9-3.3h-18c-1,0-1.9,0.4-2.6,1.1
		c-0.7,0.7-1.1,1.6-1.1,2.6c0,2,1.6,3.6,3.6,3.6l8.8,0c13.2-0.3,12.7,4.3,12.7,4.3l0.5,3.5c0.2,1.4-0.9,2.6-2.3,2.7l-14,0.2
		c-5.1,0.5-7.8,2.7-9.2,4.8c-1,1.5-1.5,3.4-1.5,5.3v7.7c0,3.7,2.2,7.1,5.6,8.5c2.5,1,4.9,1.2,4.9,1.2l9.9,0
		c6.6,0.4,12.7-1.6,12.7-1.6C781.4,839,780.5,834.9,780.5,834.9z M767.1,834.2l-8.8,0c0,0-5,0.7-5.3-5.7v-4.1c0,0,0.3-6.1,8.1-5.7
		h7.9c1,0,1.8,0.8,1.8,1.8l0.5,10.5C771.5,830.9,771.7,834.5,767.1,834.2z"/>
	<path class="st0" d="M1074,834.9v-26.2c-0.1-4.6-2.1-7.6-4.3-9.5c-2.5-2.2-5.7-3.3-9-3.3h-18c-1,0-1.9,0.4-2.6,1.1
		c-0.7,0.7-1.1,1.6-1.1,2.6c0,2,1.6,3.6,3.6,3.6l8.8,0c13.2-0.3,12.7,4.3,12.7,4.3l0.5,3.5c0.2,1.4-0.9,2.6-2.3,2.7l-14,0.2
		c-5.1,0.5-7.8,2.7-9.2,4.8c-1,1.5-1.5,3.4-1.5,5.3v7.7c0,3.7,2.2,7.1,5.6,8.5c2.5,1,4.9,1.2,4.9,1.2l9.9,0
		c6.6,0.4,12.7-1.6,12.7-1.6C1074.9,839,1074,834.9,1074,834.9z M1060.6,834.2l-8.8,0c0,0-5,0.7-5.3-5.7v-4.1c0,0,0.3-6.1,8.1-5.7
		h7.9c1,0,1.8,0.8,1.8,1.8l0.5,10.5C1065,830.9,1065.2,834.5,1060.6,834.2z"/>
	<path class="st0" d="M792.2,798.9l16.3,36.1c0.6,1.4,0.7,2.9,0.2,4.3l-5.8,16.9c-0.3,0.9,0.4,1.9,1.3,1.9h6.8
		c0.6,0,1.1-0.4,1.3-0.9l20.2-58.3c0.4-1-0.4-2.1-1.5-2.1h-6.3c-0.7,0-1.3,0.4-1.5,1.1l-8.1,26c-0.3,1-1.6,1-2,0.1l-12-26.3
		c-0.3-0.6-0.8-0.9-1.4-0.9h-6.1C792.5,796.6,791.7,797.8,792.2,798.9z"/>
	<path class="st0" d="M1098.3,807c0,0-0.5-4.1,3.6-4l5.8,0c1.4,0,2.5-1.1,2.5-2.5v-2.3c0-1.4-1.1-2.5-2.5-2.5h-4.9
		c-1.7,0-3.4,0.2-5.1,0.5c-1.5,0.3-3.4,0.8-5.3,1.4c-1.5,0.5-2.7,1.9-2.9,3.5c-0.1,0.6-0.1,1.4-0.1,2.3l-0.6,35.4
		c0,1.4,1.1,2.5,2.5,2.5h4.7c1.4,0,2.5-1.1,2.5-2.5L1098.3,807z"/>
	<path class="st0" d="M1134.5,807c0,0-0.6-4.5,4.6-4.5h6.3c1.4,0,2.8,0.3,4,1c1.8,1,3.7,2.8,3.7,6.6l-0.3,28.9
		c0,1.3,1.1,2.4,2.4,2.4h5c1.3,0,2.4-1.1,2.4-2.4v-31.6c0,0,0.1-7.5-7.5-10.6c-1.8-0.7-3.7-1.1-5.6-1.1h-11.2c0,0-9.6-0.8-12.1,5
		c-0.4,0.8-0.5,1.7-0.5,2.6v36.9c0,0.7,0.6,1.3,1.3,1.3h6.1c0.7,0,1.2-0.6,1.3-1.2L1134.5,807z"/>
	<path class="st0" d="M988,793c0-2.2,0.6-4.4,1.9-6.2c1.6-2.2,4.4-4.5,9.3-4.5h21.3c1,0,1.9,0.8,1.9,1.9v3.3c0,1-0.8,1.9-1.9,1.9
		h-16.7c0,0-6.3,0.4-6.5,6.7l0.1,7.6c0,1.6,1.3,2.9,2.9,2.9l20,0.5c1,0,1.8,0.8,1.8,1.8l0.2,3.2c0.1,1.1-0.8,2-1.9,2h-19.8
		c-1.5,0-2.8,1.3-2.8,2.8l0.1,10.5c0,0,0.5,4.5,4.1,5.7c0.6,0.2,1.2,0.3,1.8,0.3h17.3c1,0,1.9,0.8,1.9,1.9v3.9c0,1-0.8,1.9-1.9,1.9
		h-21.4c0,0-5.1,1-9-3.6c-1.8-2.1-2.6-4.8-2.6-7.6V793z"/>
</g>
</svg>
