<?xml version="1.0" encoding="utf-8"?>
<!-- Generator: Adobe Illustrator 20.0.0, SVG Export Plug-In . SVG Version: 6.00 Build 0)  -->
<svg version="1.1" id="_x33__xA0_Image_1_" xmlns="http://www.w3.org/2000/svg" xmlns:xlink="http://www.w3.org/1999/xlink" x="0px"
	 y="0px" viewBox="0 0 809 759" style="enable-background:new 0 0 809 759;" xml:space="preserve">
<style type="text/css">
	.st0{fill:#E05598;}
	.st1{fill:#594739;}
	.st2{fill:#A89B81;}
	.st3{fill:#F3E3C1;}
	.st4{fill:#000106;}
	.st5{fill:#A89C86;}
	.st6{fill:#020203;}
	.st7{fill:#A69C83;}
	.st8{fill:#FFFFFF;}
	.st9{fill:#AEAEAE;}
	.st10{fill:#A79D82;}
	.st11{fill:#A89C83;}
	.st12{fill:#EA3120;}
	.st13{fill:#FCE94D;}
	.st14{fill:#B09E37;}
	.st15{fill:#AF9E30;}
	.st16{fill:#ED742F;}
	.st17{fill:#A24E1F;}
	.st18{fill:#A0501B;}
	.st19{fill:#F5E2C2;}
	.st20{fill:#A69D84;}
	.st21{fill:#F5E4BF;}
	.st22{fill:#A69E82;}
	.st23{fill:#3B332C;}
	.st24{fill:#3D3027;}
	.st25{fill:#D81B5F;}
	.st26{fill:#941242;}
	.st27{fill:#990D41;}
	.st28{fill:#010100;}
	.st29{fill:#3C3C3C;}
	.st30{fill:#292929;}
	.st31{fill:#1E8615;}
	.st32{fill:#125F11;}
	.st33{fill:#155C0E;}
	.st34{fill:#FFFFFE;}
	.st35{fill:#B3B4B3;}
	.st36{fill:#B5B5B3;}
	.st37{fill:#3B3B3B;}
	.st38{fill:#565656;}
	.st39{fill:#2D2D2D;}
	.st40{fill:#191919;}
	.st41{fill:#1F1F1F;}
</style>
<g>
	<path class="st0" d="M419.6,214.4c-119.4,0-216.2,97.8-216.2,218.5s96.8,218.5,216.2,218.5c119.4,0,216.2-97.8,216.2-218.5
		S539,214.4,419.6,214.4z M416.4,592.8c-86.3,0-156.2-70.7-156.2-157.9s70-157.9,156.2-157.9S572.6,347.8,572.6,435
		S502.7,592.8,416.4,592.8z"/>
	<path d="M488,481.7c0,0,26.3-36.4,62.5-27.5c0,0,67.5,14.5,52.5,90c0,0-80.5,41.9-97.5,37.2C505.4,581.4,464,536.2,488,481.7z"/>
	<path d="M56.3,474.7L46,485.4c-1,1.1-2.1,2.1-3.3,3c-2.2,1.8-5.9,4.6-9.1,6.1c-1.5,0.7-2.7,1.9-3.3,3.5c-0.6,1.7-0.6,4.1,1.9,6.5
		c0,0,4.4,5.6,20.3,4.5c0,0,9.1-0.1,17.1-4.6c0,0-1.4,7.9,0.7,11.1c0,0,1.4,2.7,5.3,3.5c3,0.6,6.2-0.4,8.5-2.5l22.6-20.3
		c0,0,7.1-7,8.9-18.2c0.1-0.8,0.2-1.6,0.3-2.4c0.4-4.8,2.1-23,4.1-28.7l3.7-14.3c0.4-1.6,1.1-3.1,1.9-4.6c1.2-2,3-6,3.9-13.5
		c0,0,9.6-0.1,13.7-7c0,0,4.1,9.3,8.3,12.8c0,0,3.9,1.7,1.2,5.6c0,0-15.9,22.2-19.3,31.2c0,0-12.6,28.1-14,35.9c0,0-6,16.6-2.9,31.1
		c0,0,2,5,8,8.9l6.1,3.8l-0.3,20.4c0,0-7,4.3-8.1,23.5l-1.9,25.5c0,0-0.8,15-7.3,27.2l-6.7,12.5c0,0-3.7,10.5,1.8,16.7
		c0,0,6,8,20.5,11c0,0,33.8,2.4,48,0c0,0,26.8-1.4,33.5-13.3c0,0,4.8-8,3.9-25.8c0,0-0.5-22.1,0.9-38.1l0.9-22.3
		c0,0,0.3-5.4-3.4-8.3l0.5-10.1l20.4-0.1v10.1c0,0-3,1.6-3,7.9c0,0-0.1,17.1,0.4,24.8c0,0,1.4,25.4,0.9,37.9c0,0-1.4,19.8,5.6,26.1
		c0,0,5.5,9.3,27.7,10.5l49.3,0.8c0,0,16.4-2.9,22.7-10.2c0,0-0.8-7.5,1.1-12.3c0,0,0-8.8-2.8-13c0,0-6.7-6.4-9.8-28.3
		c0,0-0.1-22.4-3.3-37.3c0,0,0.3-8.6-6.6-15.4v-20.8c0,0,12.5-5.4,14-14.4c0,0,2.7-14.3-3.1-29.6c0,0-10.2-32-18-42.7
		c0,0-9.2-18-14-22.7c0,0-4.1-3.2-0.9-6.5c0,0,7.2-6.5,8.6-13.4c0,0,4.1,6.6,14.4,6.8c0,0,0.6,12.5,6.3,16.6c0,0,0.6,7.5,1.9,9.5
		c0,0,3.8,14.4,5,30.6c0,0-0.3,11.1,6,20.1c0,0,4.3,6.3,7.1,8.1c0,0,14.7-28.5,19.5-32.5l19.5-18.2c0,0-3.6-16.5-7.1-22.5
		c0,0-2.7-4.6-4.3-5.9c0,0-0.1-10-3.8-15.9l-3.5-6.3c0,0,8.5-6.3,8.3-15.9c0,0-1.6-12.6-7.9-23.8c0,0-14.9-20.6-23.3-28.4
		c0,0-9.1-9.1-24.4-15l-10.6-3.6c0,0-0.8-2,4.8-1.6l14.6,0c0,0,2.8-1.1,3.3-3.6h5.3c0,0,9-1.5,8.1-9.3c0,0,3.3-11.4,5.1-17.3
		c0,0,4.5-17.5-11.1-29.3l-6-2.1c0,0,0.9-6.1,4.6-10.8c0,0,4.9-10,1.5-18.9c0,0-0.1-7.6-12-12.9l0.4-29.9c0,0-3.8-21.4-11.4-34.3
		c0,0-9-18.1-23.2-31.7c-0.6-0.6-1.3-1.2-1.9-1.8c-2.5-2.7-13.8-13.3-38.3-20.7c-3.3-1-6.6-1.6-10-2c-11.2-1.2-36.9-2.6-55.8,6.7
		c0,0-24.1,9.1-41.9,36.4c0,0-11.1,15.6-16.6,37.1c-1.4,5.4-2.1,11-2.1,16.6l-0.3,23.1c0,0-9.9,3.8-12.1,14.9c0,0-3.4,12.3,4.5,22
		l1.2,5.5c0,0-10.4,4.5-13.8,13.2c0,0-3.5,8.8-2.4,17.1c0,0,2.5,12.4,3.9,14.6c0,0,0.9,8.8,3.8,10.8c0,0,5.1,3.2,11.1,2.5
		c0,0,1,3.8,7.8,4.5c0,0,7.8-0.7,10.2-0.2l4.3,0.8c0,0-20.8,6.2-31.2,15.9c0,0-19.8,20-27.8,33.2c0,0-8.7,14.4-6.5,26.4
		c0,0,1.9,7.1,7.7,11.8c0,0-8,10.6-6.6,21.7c0,0-7.7,6.9-12,27.5c0,0-3.1,9.7-3.8,16.6c-0.1,0.9-0.2,1.8-0.4,2.7
		C59.5,468.9,58.4,473.1,56.3,474.7z"/>
	<path class="st1" d="M321.7,204.5c-3,0.3-4.3,1.4-4.8,2c-0.2,0.2-0.2,0.3-0.2,0.3c-1.5,2.1-3.3,1.8-3.3,1.8
		c-3-4.8-2.4-9.9-2.1-11.2c0-0.2,0.1-0.3,0.1-0.3c2-8,2.1-18.8,2.1-18.8c-1.8-6.5-2.1-2.3-2.1-2.3c0.4,3.1-0.3,9.6-0.7,13.6
		c0,0.4-0.1,0.8-0.1,1.1c-0.1,1-1.3,1.4-2,0.8l-1-0.8c-4.2-4.6-5.6-11.8-6-14.4c0,0,0,0,0,0c-0.1-0.6-0.1-1.1,0-1.7
		c1.5-9.1,0.5-18.1,0.5-18.1c-1.5-5.7-2.3-2.4-2.3-2.4c1.2,7,0.3,14.5-0.2,17.5c-0.1,0.8-0.9,1.3-1.6,1.1c0,0,0,0,0,0
		c-7.6-2-12.5-7.7-14.4-10.4c-0.6-0.8-0.9-1.8-0.8-2.9c0.1-1.3,0.3-2.6,0.3-3.8c1-14-1.5-19.5-1.5-19.5c-2.8-6.5-2.8-1.7-2.8-1.7
		c2.2,4.8,2.1,14.4,1.8,19.7c0,0.5,0,1-0.1,1.5c-0.1,1.3-1.1,2.2-2.3,2.3l-3.1,0.2c-4.4-0.5-9.3-3.4-11.9-5c-0.6-0.4-1-0.9-1.3-1.5
		c-0.2-0.5-0.3-1-0.3-1.6l0.3-8.7c-0.7-11-4.2-19.7-4.2-19.7c-4.1-7.7-1.2,1.9-1.2,1.9c2.7,8.4,2.3,21,2,25.6c0,0,0,0,0,0.1
		c-0.1,1-1,1.8-2,1.9c-7.6,0.3-13.4-0.9-16.5-1.7c-1.4-0.4-2.4-1.7-2.4-3.2v-9.7c-0.8-17-3.6-23.3-3.6-23.3
		c-1.4-4.9-2.1-1.3-2.1-1.3l0.9,3.8c2.5,8.1,2.6,23.6,2.5,28.3c0,0.9,0,1.4,0,1.4c0,3.3-2.5,3.8-2.5,3.8c-7.6,1.9-15,1-18.9,0.2
		c-1.6-0.3-2.8-1.8-2.8-3.5v-0.6c0-17.6,2.2-30.4,2.2-30.4c0.7-11.3-2.7,2.5-2.7,2.5c-3.4,7.9-2.4,25.7-2.1,30.1
		c0,0.3,0,0.5-0.2,0.8c-0.2,0.3-0.4,0.5-0.7,0.7c-5.7,2.5-14.8,2.3-18.5,2.1c-0.9,0-1.7-0.8-1.8-1.7c-0.1-0.9-0.1-1.8-0.2-2.7
		c-0.6-12.9,2.5-24.1,2.5-24.1c0.9-5.9-1.6-1.8-1.6-1.8c-3.7,7-4.1,20-4,26.5v0.1c0,2.3,0.1,3.8,0.1,3.8c-1.9,3.8-12.4,7.4-12.4,7.4
		c-7,1-6.1-2-6.1-2c-0.1-0.5-0.1-1-0.2-1.6c-0.4-5.9,0.5-16.2,0.5-16.2c1.3-8.2-1-3.7-1-3.7c-2.8,7.5-1.7,20.7-1.7,20.7
		c0.1,0.6,0.1,1.1,0.1,1.6c0,4.6-2.8,7.5-2.8,7.5c-4.5,4.6-8.9,6.6-11.4,7.3c-1.1,0.4-2.3-0.3-2.6-1.5c0-0.1,0-0.2-0.1-0.3
		c-0.8-4.4-0.5-11.8-0.5-11.8c1-8-0.8-5.5-0.8-5.5c-3.3,6.3-1.8,18-1.8,18c0.2,0.8,0.3,1.6,0.4,2.3c0.1,0.7,0.2,1.4,0.2,2.1
		c0.5,8.5-3.2,11.5-3.2,11.5c-6,9.5-5.2,3.5-5.2,3.5l0-0.4l-0.7-10.1c0.1-8.2-1.8-3.3-1.8-3.3c-2.2,9.8,1.7,20.2,1.7,20.2
		c0.7,9.7-3.2,12.3-3.2,12.3c-1.8-2.7-7.5-4.2-7.5-4.2v-9.7c-1-14.7,3.2-31,3.2-31c7.8-26.2,25.7-46.3,25.7-46.3
		c10.9-14.3,30.3-22.7,40.5-26.3c4.3-1.5,8.8-2.7,13.3-3.3c25.5-3.4,46,3.2,46,3.2c18.8,6.2,31.3,17.4,31.3,17.4
		c9.3,7.2,18.7,21.8,21.2,25.8c0.5,0.8,1,1.5,1.5,2.2c8.7,12.4,13.5,34,13.5,34C322,178.9,321.7,204.5,321.7,204.5z"/>
	<path class="st2" d="M137,208.5v-13.1c0,0,9.4-4.9,10.4-19.5c0,0,13-4.3,18.1-14.8c0,0,9.4,1.3,21.9-8.8c0,0,9.4,4.5,22.9-2.9
		c0,0,10.4,6.5,25.6,0c0,0,12.4,7.1,22.4,3c0,0,8.8,8.5,22.5,9c0,0,5.9,11.2,18.3,14.1c0,0-0.7,10.8,9.8,20.1v15.5L137,208.5z"/>
	<path class="st3" d="M327.6,243.5c0,0-5.6,4.5-11,2.3c0,0-4.1-1.1-6-6.5c0,0,2.5-21.3,1.8-23.7c0,0-0.8-2.1-1.8,2.5
		c0,0-1.4,15.3-2.8,27.8c-0.5,4.9-1.1,9.3-1.6,12.2c0,0-0.1,21.5-32.5,35.3c0,0-23,6.6-27.4,7.2c0,0-0.6-0.5,0.8-1.2
		c0,0,1.8-1,2.2-3c0,0-0.2-0.1-0.6-0.1c-0.7,0-2,0.4-4,2.5c0,0-0.4,0.5-1.3,1.3c-2.6,2.4-9.1,7.6-19.6,8.5c0,0-10.4,0.8-19.6-6.6
		l-2.7-2.5l-3.1-2.9c0,0-1.3-0.6-1.7-0.3c-0.4,0.2-0.2,0.9,1.7,2.9l2,2.1l0.1,0.2l-0.1-0.1l-8.4-3.4c0,0-23.3-2-35.1-12.5
		c0,0-1-0.7-2.5-2c-8.7-7.6-14.3-18.1-15.9-29.5c-0.2-1.3-0.4-2.7-0.5-4.2c-0.5-4.5-0.9-9.5-0.9-13.9c0,0-1.8-18.3-2.3-19.8
		c0,0-1.3-2.7-1.6,1.3c-0.1,1.6,0,3.1,0.3,4.7c0.7,4.1,2.3,14.6,0.5,18.8c0,0-3.3,8.3-12.7,4c0,0-7.8-3.3-9.8-18.5
		c0,0-1.5-4.7,2.7-12.5c0,0,4.2-5.3,8.7-6.9c0,0,4.8-0.9,8.2,4.3c0,0,1.8,1.9,3.3-0.8c0,0,3.6-3,4.4-7.2c0,0,5.5-13.3,6.5-15.9
		c0,0,4.7-10.8,14.2-15.7c2.2-1.1,4.3-2.3,6.4-3.6c2-1.3,4.9-3.1,8.5-4.8c8.6-4.2,18.1-6.6,27.7-7.2c8.9-0.6,23.7-1.2,33.5-0.4
		c0,0,19,0.8,38.7,8.6c2.3,0.9,4.5,2,6.6,3.3c5.4,3.3,15.2,10.6,19.5,21.1c0,0,7,14,8.5,19.8c0,0,1.8,4.1,6.7,2.3
		c0,0,4.4-6.7,8.2-3.4c0,0,10.9,4,10.7,19.5C334.3,226.9,335.1,236.8,327.6,243.5z"/>
	<path class="st4" d="M117.4,220.6c0,0-3.2,0-0.8-3.1c0,0,5.3-6.7,8.8,1.5c0,0,0.5,0.9,0.9,2.4c0.7,2.4,0.7,4.9,0.1,7.4
		c-0.5,1.9-0.5,4.6,2,6.7c0,0,0.9,0.5,1.4,1.2c0.6,0.7,0,1.7-0.9,1.7l-3.3-0.3L117.4,220.6z"/>
	<path class="st5" d="M119.3,218.1c-2,1.2-3.3,3.3-3.7,5.6c-0.6,3.5-0.5,9.2,4.3,14.4c0,0,4,4.7,9.1,0.5c0,0-5.6-1.1-4.4-6.6
		c0,0,1.6-4.3-1.8-12.4C122.8,219.6,122.6,216.2,119.3,218.1z"/>
	<path class="st6" d="M327.8,220.4c0,0,2.9,1.1,1.9-1.5c0,0-3.5-7.3-8.1-1.8c0,0-3.2,3.3-3.2,10.1c0,0,1.8,5.3-0.9,8.6
		c0,0-2.8,0.8-1.9,2.6c0,0,3.5,1,4.8-0.8c0,0,2.8-4.3,2.3-9.8L327.8,220.4z"/>
	<path class="st7" d="M328.5,220.5c0,0-3.1-7-6.8,1.3c0,0-1.8,4.3,0,7.8c0,0,0.8,2.2,0.1,4.6c-0.6,2-2.2,3.4-4.2,4
		c-1,0.3-1.8,1,0.7,2.3c0,0,4,1.5,8-3.4c1.5-1.8,2.4-4,2.9-6.4C329.8,227.7,330.3,223,328.5,220.5z"/>
	<g>
		<path d="M149.5,207.5c0,0,9.7-3.1,16.4-5.5c4.5-1.6,9.3-2.3,14.1-1.9c5.4,0.4,11.9,1.9,15.9,5.8c0,0,3.6,2.8,5.9,9.2
			c0.5,1.5,0.2,3.2-1,4.2c-1,0.9-2.6,2-5.2,2.7c-1.9,0.6-3.8,0.8-5.8,0.9c-5,0.1-17.3-0.1-25.5-3.4c0,0-10.4-5.3-13.8-8.1
			C150.5,211.5,146.2,208.6,149.5,207.5z"/>
		<path class="st8" d="M199.2,218.5c-10.1,3.8-19.3,2.1-19.3,2.1c-13.3-2.7-20.3-9.2-20.3-9.2c0,0-0.1-0.1-0.1-0.1
			c-1-1,2-2.5,4.2-3.4c1.3-0.5,2.5-1.2,3.7-1.8c5.9-3.1,14.1-2.8,18.8-2.2c3.7,0.5,7.2,2.3,9.5,5.2c2,2.5,3.3,5,3.3,5
			c0.8,0.8,1.1,1.6,1.2,2.1C200.6,217.9,199.2,218.5,199.2,218.5z"/>
		<path class="st9" d="M200.4,216.4c-5.8-4.1-10.7-8.8-10.7-8.8l-14.5-1c-6.4,3.3-13.3,4.5-15.6,4.8c-1-1,2-2.5,4.2-3.4
			c1.3-0.5,2.5-1.2,3.7-1.8c5.9-3.1,14.1-2.8,18.8-2.2c3.7,0.5,7.2,2.3,9.5,5.2c2,2.5,3.3,5,3.3,5
			C200,215.1,200.3,215.8,200.4,216.4z"/>
		<ellipse cx="182.5" cy="210.5" rx="9.4" ry="8.8"/>
	</g>
	<g>
		<path d="M296.4,207.3c0,0-9.7-3.1-16.5-5.5c-4.5-1.6-9.3-2.3-14.1-1.9c-5.4,0.4-11.9,1.9-15.9,5.8c0,0-3.6,2.8-5.9,9.2
			c-0.5,1.5-0.2,3.2,1,4.2c1,0.9,2.6,2,5.2,2.7c1.9,0.6,3.9,0.8,5.8,0.9c5.1,0.1,17.3-0.1,25.5-3.4c0,0,10.4-5.3,13.8-8.1
			C295.4,211.3,299.8,208.4,296.4,207.3z"/>
		<path class="st8" d="M246.7,218.3c10.2,3.8,19.3,2.1,19.3,2.1c13.3-2.7,20.3-9.2,20.3-9.2c0,0,0.1-0.1,0.1-0.1c1-1-2-2.5-4.2-3.4
			c-1.3-0.5-2.5-1.2-3.7-1.8c-5.9-3.1-14.1-2.8-18.9-2.2c-3.7,0.5-7.2,2.3-9.6,5.2c-2,2.5-3.4,5-3.4,5c-0.8,0.8-1.1,1.6-1.2,2.1
			C245.2,217.7,246.7,218.3,246.7,218.3z"/>
		<path class="st9" d="M245.5,216.2c5.8-4.1,10.7-8.8,10.7-8.8l14.5-1c6.4,3.3,13.3,4.5,15.6,4.8c1-1-2-2.5-4.2-3.4
			c-1.3-0.5-2.5-1.2-3.7-1.8c-5.9-3.1-14.1-2.8-18.9-2.2c-3.7,0.5-7.2,2.3-9.6,5.2c-2,2.5-3.4,5-3.4,5
			C245.9,214.9,245.6,215.7,245.5,216.2z"/>
		<ellipse cx="263.3" cy="210.3" rx="9.4" ry="8.8"/>
	</g>
	<path class="st10" d="M185.7,200.6c0,0-5.1-3.2,1.3-5.3c0,0,5.4-0.8,12,0.2c4.7,0.7,8.9,3.3,11.3,7.4c2,3.5,3.9,8.6,3.8,15.9
		c0,0-0.1,2.3-3.8-0.6c0,0-4.4-4.4-8.1-7.3c-1.7-1.3-3.2-2.6-4.8-4C194.9,204.6,190.7,201.5,185.7,200.6z"/>
	<path class="st10" d="M250.9,195h3.9c0.8,0,1.5,0.2,2.1,0.7c0.8,0.7,1.4,1.9-1.3,3.5c0,0-11.9,6.9-21.9,18.1c0,0-2.4,0.8-2.5-1.2
		c0,0-2-10.5,11.5-18.9C245.2,195.8,248,195,250.9,195z"/>
	<path class="st10" d="M211,248.5c0,0,1.6,8.4,13,8.3c0,0,10.7-0.7,10.6-8.3c0,0-2.6,3.3-15.5,3C219.2,251.5,214.3,251,211,248.5z"
		/>
	<path d="M205,199.8c0,0-2.1-2.9,1.8-2.1c0,0,10.5,5.6,8.9,19.8l0.1,12.8c0,3.8-0.6,7.5-1.8,11c-0.3,1-0.7,1.9-1.1,2.7
		c0,0-2.5,3.8,1.8,5.4c0,0,9.6,2.1,17.5,0c0,0,2.8-1.5,0.9-5.4c0,0-2.6-5.3-3.1-12c0,0-0.5-16.8,1.9-25.4c0,0,1.6-5.7,7.9-9
		c0,0,3-0.7,1,2.1c-0.5,0.6-1.1,1.1-1.7,1.6c-2,1.3-7,5.9-6.5,19.6c0.1,1.3,0.1,2.7,0,4c-0.1,3.8-0.1,11.9,1.4,14.5l1.9,4.5
		c0,0,0.7,1.8,0.4,3.9c-0.3,2-1.9,3.5-3.9,3.9c-3.4,0.7-10.2,1.7-16.2,0.7c-0.7-0.1-1.5-0.3-2.2-0.6c-0.9-0.3-2.1-0.9-3.2-1.7
		c-0.9-0.6-1.4-1.6-1.4-2.7c0-1.3,0.3-3.2,1.5-5.7c1.1-2.1,1.9-4.4,2.4-6.7c0.6-2.9,1.1-6.7,0.8-10.4c0,0-0.2-10.1-2.3-16.7
		c-0.7-2.3-2.1-4.3-4-5.9L205,199.8z"/>
	<path class="st11" d="M200.8,301.5l-8.5-3.4c0,0-23.3-2-35.1-12.5c0,0-1-0.7-2.5-2c-8.7-7.6-14.3-18.1-15.9-29.5
		c-0.2-1.3-0.4-2.7-0.5-4.2c3.5,7.6,14.7,27.9,37.8,37.4c0,0,13.1,3.4,20.8,9c-0.4,0.2-0.2,0.9,1.7,2.9L200.8,301.5z"/>
	<polygon class="st11" points="200.6,301.4 200.8,301.5 200.6,301.5 	"/>
	<path class="st11" d="M243.6,300.2c-2.6,2.4-9.1,7.6-19.6,8.5c0,0-10.4,0.8-19.6-6.6l-2.7-2.5C206,301.4,224.5,308.4,243.6,300.2z"
		/>
	<path class="st11" d="M307.9,245.9c-0.5,4.9-1.1,9.3-1.6,12.2c0,0-0.1,21.5-32.5,35.3c0,0-23,6.6-27.4,7.2c0,0-0.6-0.5,0.8-1.2
		c0,0,1.8-1,2.2-3c0,0-0.2-0.1-0.6-0.1c1.9-1.9,5.1-3.3,5.1-3.3C287.4,286.1,303.9,254.5,307.9,245.9z"/>
	<path d="M206.7,268.8c0,0,3.8,3.5,8.1,6c2,1.1,4.2,1.6,6.5,1.5c2.5-0.1,6-0.4,9.4-1.4c1.7-0.5,3.2-1.3,4.5-2.5l4.1-3.6
		c0,0,1.9-1-1.6-4c0,0-4.1-4.9-11.5-5.6h-0.8c-0.6,0-1.3,0.3-1.7,0.8c-0.4,0.5-1,0.9-1.9-0.1c-0.4-0.5-1-0.7-1.7-0.7
		c-1.5,0.1-4.4,0.6-8.2,2.5l-5.3,4C206.7,265.6,204.6,267,206.7,268.8z"/>
	<path class="st12" d="M210.4,265.2c0,0,4-4.2,8-4.6c0,0,1.6-0.2,2.4,0.4c0.7,0.5,1.5,0.9,2.3,0.8c0.5-0.1,1-0.3,1.5-0.6
		c0.5-0.4,1.2-0.6,1.8-0.5c2.3,0.2,7.3,1.1,9.5,5c0,0-8.2-0.2-9.3-0.4c0,0-3.4,2.6-6.4,0.4L210.4,265.2z"/>
	<path class="st12" d="M209.1,267h8.8c0.2,0,0.4,0.2,0.4,0.4l0,0c0,0.6,0.5,1,1,1h7.1c0.6,0,1-0.5,1-1v-0.5c0-0.2,0.2-0.4,0.4-0.4
		h8.2c0.7,0,1.1,0.7,0.7,1.3c-0.5,0.8-1.3,1.7-2.3,2.7c-2.5,2.5-6,3.7-9.5,3.7h-3.8c-2.3,0-4.6-0.5-6.6-1.6
		c-2.1-1.1-4.6-2.8-5.9-4.8C208.5,267.5,208.8,267,209.1,267z"/>
	<g>
		<path class="st13" d="M220.7,318.6c-1.9,8.1-6.9,11.8-6.9,11.8c-13.5,9.5-30.3,1.7-30.3,1.7c-12.8-4.8-23.1-16.6-26.8-21.3
			c-0.8-1-0.5-2.5,0.7-3.1l5.6-2.9l3.9-2c14-7.5,32.5,0,32.5,0c7.5,6.2,22.2,8,22.2,8C221.5,313.7,221.2,316.3,220.7,318.6z"/>
		<path class="st14" d="M220.7,318.6l-20.3-2.8c-0.7-0.1-1.3-0.1-2-0.2c-10.5-0.8-30.2-8.7-35.6-10.9l3.9-2c14-7.5,32.5,0,32.5,0
			c7.5,6.2,22.2,8,22.2,8C221.5,313.7,221.2,316.3,220.7,318.6z"/>
	</g>
	<g>
		<path class="st13" d="M225.5,318.6c1.9,8.1,6.9,11.8,6.9,11.8c13.4,9.5,30,1.7,30,1.7c12.7-4.8,22.9-16.6,26.6-21.3
			c0.8-1,0.5-2.5-0.7-3.1l-5.5-2.9l-3.9-2c-13.9-7.5-32.2,0-32.2,0c-7.4,6.2-21.9,8-21.9,8C224.7,313.7,225,316.3,225.5,318.6z"/>
		<path class="st14" d="M225.5,318.6l20.1-2.8c0.6-0.1,1.3-0.1,1.9-0.2c10.4-0.8,29.9-8.7,35.3-10.9l-3.9-2c-13.9-7.5-32.2,0-32.2,0
			c-7.4,6.2-21.9,8-21.9,8C224.7,313.7,225,316.3,225.5,318.6z"/>
	</g>
	<path class="st13" d="M159.3,318.6c0,0,10.8,27.9,39.6,34.3c0,0,32.5,9.9,62-5.1c0,0,19-11.5,25.3-27.8c0,0-17.4,16.9-39,18
		c-8,0.4-15.9-2.9-20.8-9.3c-1.5-1.9-2.7-4.2-3.5-6.7c0,0-6.3,17.3-22.2,16.5C200.8,338.5,177.7,338.1,159.3,318.6z"/>
	<g>
		<path class="st13" d="M368.2,384.5c-0.1,0.5-0.3,0.9-0.4,1.4c-6.7,20.1-47.3,25.1-47.3,25.1c-5.6,0.1-9.3-0.8-11.7-2
			c-2.8-1.3-4.1-4.5-3.2-7.4c1-3.3,1.9-7.5,2.5-12.5c3.5-27.2,1.4-73.4,1.4-73.4c16.5,4,29.8,17.3,29.8,17.3
			C373.7,369.3,368.2,384.5,368.2,384.5z"/>
		<path class="st15" d="M367.8,385.9c-6.7,20.1-47.3,25.1-47.3,25.1c-5.6,0.1-9.3-0.8-11.7-2c-2.8-1.3-4.1-4.5-3.2-7.4
			c1-3.3,1.9-7.5,2.5-12.5c3,3.8,11.6,11.5,30.4,10.3C338.4,399.5,353.2,401.1,367.8,385.9z"/>
	</g>
	<g>
		<path class="st13" d="M78,384.5c0.1,0.5,0.3,0.9,0.4,1.4c6.8,20.1,48.1,25.1,48.1,25.1c5.6,0.1,9.4-0.8,11.9-2
			c2.8-1.3,4.2-4.5,3.2-7.4c-1.1-3.3-1.9-7.5-2.5-12.5c-3.5-27.2-1.4-73.4-1.4-73.4c-16.7,4-30.2,17.3-30.2,17.3
			C72.5,369.3,78,384.5,78,384.5z"/>
		<path class="st15" d="M78.4,385.9c6.8,20.1,48.1,25.1,48.1,25.1c5.6,0.1,9.4-0.8,11.9-2c2.8-1.3,4.2-4.5,3.2-7.4
			c-1.1-3.3-1.9-7.5-2.5-12.5c-3.1,3.8-11.8,11.5-30.9,10.3C108.2,399.5,93.3,401.1,78.4,385.9z"/>
	</g>
	<path class="st16" d="M326.7,517.7c0.1,4.6-2.1,9-5.8,11.7c-8.3,6-27.5,16.6-65.1,21.2c0,0-62.1,5.5-96.7-6c0,0-24-7-35.5-15.5
		c-2.6-1.9-4.1-4.9-4.2-8.1c-0.3-7.8,0.5-24.8,9.4-45.7c0.7-1.7,1.5-3.3,2.3-5c0,0,15.3-34.7,22-40.8c0,0,0.3-0.2,0.7-0.5
		c1.1-1,3-3.5,1.9-8.3c0,0-1.2-1-3-3.4c-3.3-4.4-8.5-13.2-10.8-28.1c0,0-3.3-46.2-2.9-72.5c0-1.7,1.1-3.1,2.6-3.7
		c2.5-0.9,6.5-2.3,9.6-2.9c1.4-0.2,2.7,0.6,3,1.9c2,7.1,9.8,29.9,29.9,38.5c0,0,17,12.3,62.1,5.8c0,0,29.9-3.7,43.1-37.5l3.6-8.9
		c0,0,10.3,1.9,13.8,4.5c0,0,0.6,70.1-4.4,81.4c0,0-3.6,16.8-11.5,24.3c-0.1,0.2-0.3,0.3-0.5,0.4c0,0-2,4.8,2.5,8.9
		c0.1,0.1,0.2,0.2,0.3,0.3c0,0,15,23.8,23.7,45.4c2.3,5.6,4.1,11.1,5.1,15.9C322.1,490.8,326.6,505.8,326.7,517.7z"/>
	<path class="st17" d="M293,429.2c-19.9,6.5-70.2,8.6-70.2,8.6c-35.8-0.8-59.3-6.2-68.9-9c1.1-1,3-3.5,1.9-8.3c0,0-1.2-1-3-3.4
		c23.4,9.2,59.4,10.1,59.4,10.1c24.3,2.3,65.2-4.9,78.7-7.4c-0.1,0.2-0.3,0.3-0.5,0.4C290.4,420.3,288.4,425,293,429.2z"/>
	<path class="st18" d="M326.7,517.7c0.1,4.6-2.1,9-5.8,11.7c-8.3,6-27.5,16.6-65.1,21.2c0,0-62.1,5.5-96.7-6c0,0-24-7-35.5-15.5
		c-2.6-1.9-4.1-4.9-4.2-8.1c-0.3-7.8,0.5-24.8,9.4-45.7l-2.2,24.1c0,0,4.5,25.8,40.5,33.5c0,0,42,10,75,6.3c0,0,49-3,66.8-21.8
		c0,0,15.7-9.6,8.1-42.3c2.3,5.6,4.1,11.1,5.1,15.9C322.1,490.8,326.6,505.8,326.7,517.7z"/>
	<path class="st19" d="M126.6,414.7l-2.3,9.7c-0.2,0.9-0.6,1.7-1,2.4c-0.2,0.3-0.4,0.6-0.7,0.8c-1.2,1.3-2.9,2-4.7,2.3
		c-4,0.5-9.3,4.8-11.7,6.9c-1,0.9-2.2,1.6-3.5,1.9c-3.9,1-7-0.3-8.9-1.7c-1.3-0.9-2.3-2.2-3.1-3.5c-3.6-6.2-8.5-11.3-10.8-13.5
		c-0.9-0.9-1.3-2.1-1.2-3.3c0.8-5.8,3.5-11.5,5.1-14.6c0.8-1.5,1.3-2.4,1.3-2.4C100.9,411,126.6,414.7,126.6,414.7z"/>
	<path class="st20" d="M126.6,414.7l-2.3,9.7c-0.2,0.9-0.6,1.7-1,2.4c-7.3-1.8-15.1-5.7-15.1-5.7c-8.6-3.1-19.8-14.4-24.3-19.1
		c0.8-1.5,1.3-2.4,1.3-2.4C100.9,411,126.6,414.7,126.6,414.7z"/>
	<path class="st19" d="M320.1,414.7l2.3,9.7c0.2,0.9,0.6,1.7,1,2.4c0.2,0.3,0.4,0.6,0.7,0.8c1.2,1.3,2.9,2,4.7,2.3
		c3.9,0.5,9.3,4.8,11.6,6.9c1,0.9,2.2,1.6,3.4,1.9c3.9,1,7-0.3,8.9-1.7c1.3-0.9,2.3-2.2,3-3.5c3.6-6.2,8.4-11.3,10.8-13.5
		c0.9-0.9,1.3-2.1,1.2-3.3c-0.8-5.8-3.4-11.5-5.1-14.6c-0.8-1.5-1.3-2.4-1.3-2.4C345.6,411,320.1,414.7,320.1,414.7z"/>
	<path class="st20" d="M320.1,414.7l2.3,9.7c0.2,0.9,0.6,1.7,1,2.4c7.3-1.8,15-5.7,15-5.7c8.5-3.1,19.7-14.4,24.2-19.1
		c-0.8-1.5-1.3-2.4-1.3-2.4C345.6,411,320.1,414.7,320.1,414.7z"/>
	<path class="st3" d="M324.9,432.5c0,0,6.3,19.4,6.1,25.3c0,0,1.3,18.9,3.4,24.5c0,0,4.7,10.1,8.8,13.8c0,0,0.7,2.1,2.6-4.7
		c0,0,10.3-22.6,25.1-35.1c0,0,4.9-4.5,7.3-6.1c0.6-0.4,0.9-1.1,0.7-1.8c-0.8-4-3.8-16.6-9.9-26.6c0,0-5.3,4.4-8.3,10.3
		c0,0-3.7,7.7-12.1,10.4c-1.5,0.5-3,0.6-4.5,0.3c-2-0.4-5.1-1.4-7.7-4C336.5,439,331.1,434.1,324.9,432.5z"/>
	<path class="st19" d="M76.8,421.7c0,0,7,6.8,10.7,13.3c0,0,5.3,7,12.3,8.1c0,0,8.1-0.7,14.8-8.3c0,0,3.8-1.7,6.8-2.8
		c0,0-7.9,21.5-7.2,35.9c0,0-0.1,16.1-7.9,24.5l-22.6,21c0,0-4.1,7-8.9,2.5c0,0-2.5-1.3-2.6-5.7c-0.1-2.2,0.5-4.3,1.6-6.2
		c0.7-1.3,1.6-3,1.8-4c0,0-0.1-2.5-3.4,0c0,0-8.4,5.9-21.9,6.6c0,0-10.3,1.3-16.3-3.9c0,0-3.6-2.5,1.9-6.4c0,0,10.6-4.4,16.8-14
		c0,0,9.4-6.4,10.7-17.1c0.2-1.5,0.5-3,0.8-4.6c1.5-7.2,5.3-24.6,7.5-28.9L76.8,421.7z"/>
	<path class="st21" d="M209.1,555.5v10.7c-10.2,12.3-46.2,5.5-47,5.5c-18.8,0-28.7-13-28.7-13v-20.2l18.7,7.3
		C171.9,554,209.1,555.5,209.1,555.5z"/>
	<path class="st22" d="M209.1,555.5v7.5c-9.2,8.2-33.1,2-34.8,1.8c-21.7-2-36.1-11.6-40.8-15.1v-11.2l18.7,7.3
		C171.9,554,209.1,555.5,209.1,555.5z"/>
	<path class="st21" d="M236.3,555.5v10.7c10.2,12.3,46.2,5.5,47.1,5.5c18.8,0,28.7-13,28.7-13v-20.2l-18.7,7.3
		C273.5,554,236.3,555.5,236.3,555.5z"/>
	<path class="st22" d="M236.3,555.5v7.5c9.2,8.2,33.2,2,34.9,1.8c21.7-2,36.2-11.6,40.9-15.1v-11.2l-18.7,7.3
		C273.5,554,236.3,555.5,236.3,555.5z"/>
	<path class="st3" d="M212.1,592.8c0,0-1.9,16.4-1.6,38.1c0.1,3.4,0.2,6.8,0.5,10.2c0.3,3,0.3,8.4-2.2,13.6
		c-2.1,4.6-6.2,9.2-13.7,11.9c0,0-19.3,5.7-40.4,5.5c0,0-18.8-0.1-31.2-3.3c0,0-13-1.8-14.6-13c0-0.2,0-0.3-0.1-0.5
		c0,0-1.3-5.8,4.5-15.8c0,0,8.5-12.8,10.3-28.2l2.2-33.5c0,0,0.5-11.8,4.8-17.8c0,0,8.2,11.5,28.7,14.8c0,0,24.5,4.2,38.7,1.3
		c0,0,8.7-1,14-7.6C212.1,568.4,213,584.5,212.1,592.8z"/>
	<path class="st22" d="M208.8,654.7c-2.1,4.6-6.2,9.2-13.7,11.9c0,0-19.3,5.7-40.4,5.5c0,0-18.8-0.1-31.2-3.3c0,0-13-1.8-14.6-13
		c2.7,3.3,10.3,9.1,31.8,12.1c0,0,32.3,1.2,52.8-5.8C193.6,662,202.4,660,208.8,654.7z"/>
	<path class="st3" d="M234.2,592.8c0,0,1.9,16.4,1.6,38.1c-0.1,3.4-0.2,6.8-0.5,10.2c-0.3,3-0.3,8.4,2.1,13.6
		c2.1,4.6,6.2,9.2,13.7,11.9c0,0,19.2,5.7,40.4,5.5c0,0,18.8-0.1,31.1-3.3c0,0,13-1.8,14.6-13c0-0.2,0-0.3,0.1-0.5
		c0,0,1.3-5.8-4.5-15.8c0,0-8.5-12.8-10.3-28.2l-2.2-33.5c0,0-0.5-11.8-4.8-17.8c0,0-8.2,11.5-28.6,14.8c0,0-24.5,4.2-38.6,1.3
		c0,0-8.7-1-14-7.6C234.2,568.4,233.3,584.5,234.2,592.8z"/>
	<path class="st22" d="M237.5,654.7c2.1,4.6,6.2,9.2,13.7,11.9c0,0,19.2,5.7,40.4,5.5c0,0,18.8-0.1,31.1-3.3c0,0,13-1.8,14.6-13
		c-2.7,3.3-10.3,9.1-31.7,12.1c0,0-32.3,1.2-52.8-5.8C252.7,662,243.9,660,237.5,654.7z"/>
	<path class="st23" d="M280.5,153.8c0,0.5,0,1-0.1,1.5c-0.1,1.3-1.1,2.3-2.3,2.3l-3.1,0.2c-4.4-0.5-9.3-3.4-11.9-5
		c-0.6-0.4-1-0.9-1.3-1.5C264.8,152.5,273.4,155.7,280.5,153.8z"/>
	<path class="st23" d="M297.8,172.4c-7.6-2-12.5-7.7-14.4-10.4c-0.6-0.8-0.9-1.8-0.8-2.9c0.1-1.3,0.3-2.6,0.3-3.8
		C284.6,157.8,289.9,165.6,297.8,172.4z"/>
	<path class="st23" d="M310.5,189.4c0,0.4-0.1,0.8-0.1,1.1c-0.1,1-1.3,1.4-2,0.8l-1-0.8c-4.2-4.6-5.6-11.8-6-14.4
		C303.3,179.6,307.1,186.4,310.5,189.4z"/>
	<path class="st23" d="M184.3,150.6c-1.9,3.8-12.4,7.4-12.4,7.4c-7,1-6.1-2-6.1-2c-0.1-0.5-0.1-1-0.2-1.6c1.8,1.2,7.3,3,18.5-7.6
		C184.2,149.2,184.3,150.6,184.3,150.6z"/>
	<path class="st23" d="M163.6,156.8c0,4.6-2.8,7.5-2.8,7.5c-4.5,4.6-8.9,6.6-11.4,7.3c-1.1,0.4-2.3-0.3-2.6-1.5c0-0.1,0-0.2-0.1-0.3
		C149.5,169.2,156.5,166.7,163.6,156.8z"/>
	<path class="st23" d="M140.9,186.3c-6,9.5-5.2,3.5-5.2,3.5l0-0.4c1.9-1.7,5.8-6.1,8.4-14.5C144.7,183.4,140.9,186.3,140.9,186.3z"
		/>
	<path class="st23" d="M316.9,206.5c-0.2,0.2-0.2,0.3-0.2,0.3c-1.5,2.1-3.3,1.8-3.3,1.8c-3-4.8-2.4-9.9-2.1-11.2
		C312.1,200,313.9,204.4,316.9,206.5z"/>
	<g>
		<path class="st24" d="M137.4,259.1c-4.4,0.4-8-0.9-10.8-2.7c-6.1-3.9-9-10.5-9-10.5c3.7,1.9,6.6,2.6,9,2.7
			c6.7,0.2,8.7-5.1,8.7-5.1L137.4,259.1z"/>
		<path class="st1" d="M126.6,248.6v7.8c-6.1-3.9-9-10.5-9-10.5C121.3,247.8,124.2,248.6,126.6,248.6z"/>
	</g>
	<g>
		<path class="st24" d="M309.7,259.6c4.2,0.2,7.6-1.2,10.2-3.1c5.7-4.1,8.1-10.9,8.1-10.9c-3.4,2.1-6.2,2.9-8.5,3.1
			c-6.4,0.4-8.5-4.7-8.5-4.7L309.7,259.6z"/>
		<path class="st1" d="M319.6,248.6l0.4,7.8c5.7-4.1,8.1-10.9,8.1-10.9C324.6,247.6,321.8,248.4,319.6,248.6z"/>
	</g>
	<path class="st1" d="M168.3,294.9c0,0-8.4,12.5-23.8,13h-9c0,0,7-6.4,7-10.6c0,0,0.2-1.9-1.9,0.6c-0.6,0.8-1.2,1.6-1.6,2.5
		c-1,2.1-4.1,6.8-10.8,7.5c-0.3,0-0.6,0.1-0.9,0.1c0,0-3.7,0-5.8-2.4c-0.6-0.6-0.4-1.6,0.3-2.1c2.9-1.9,9.9-7.7,10.7-19.1
		c0,0-0.4-4-3,1.9c0,0-0.9,10.8-10.8,17.3c0,0-9.6,1.2-11.8-6.8c0,0-2.9-11.9-4.1-16.5c0,0-3.6-13.7,8.7-27.5c0,0,5.5-5.1,8,1.8
		c0,0-1.4,5,8.9,11.4c0,0,0.8,0.9,2.7,1.9c1.9,0.9,4.9,1.9,9.3,2.1c0.2,0,0.3,0,0.5,0c0,0,0,0.1,0.1,0.4
		C142,272.6,148.2,287.1,168.3,294.9z"/>
	<path class="st24" d="M168.3,294.9c0,0-8.4,12.5-23.8,13h-9c0,0,7-6.4,7-10.6c0,0,0.2-1.9-1.9,0.6c-0.6,0.8-1.2,1.6-1.6,2.5
		c-1,2.1-4.1,6.8-10.8,7.5c2.7-5.4,5.5-12.6,5.7-13.8c1.3-7.3-1.3-19.9-2.8-26.4c1.9,0.9,4.9,1.9,9.3,2.1l0.6,0.4
		C142,272.6,148.2,287.1,168.3,294.9z"/>
	<path class="st1" d="M278.5,294.9c0,0,8.2,12.5,23.4,13h8.8c0,0-6.9-6.4-6.9-10.6c0,0-0.2-1.9,1.9,0.6c0.6,0.8,1.2,1.6,1.6,2.5
		c1,2.1,4,6.8,10.6,7.5c0.3,0,0.6,0.1,0.9,0.1c0,0,3.6,0,5.7-2.4c0.6-0.6,0.4-1.6-0.3-2.1c-2.8-1.9-9.7-7.7-10.5-19.1
		c0,0,0.4-4,2.9,1.9c0,0,0.6,7.9,6.9,14.2c2.6,2.6,6.4,3.6,9.8,2.3c2.3-0.9,4.6-2.6,5.5-6c0,0,2.8-11.9,4-16.5
		c0,0,3.6-13.7-8.5-27.5c0,0-4.5-4.3-7.2,0.2c-0.4,0.7-0.6,1.6-0.7,2.4c-0.1,1.7-1.2,5.7-8.8,10.5c0,0-0.8,0.9-2.6,1.9
		c-1.9,0.9-4.8,1.9-9.2,2.1c-0.2,0-0.3,0-0.5,0c0,0,0,0.1-0.1,0.4C304.3,272.6,298.2,287.1,278.5,294.9z"/>
	<path class="st24" d="M278.5,294.9c0,0,8.2,12.5,23.4,13h8.8c0,0-6.9-6.4-6.9-10.6c0,0-0.2-1.9,1.9,0.6c0.6,0.8,1.2,1.6,1.6,2.5
		c1,2.1,4,6.8,10.6,7.5c-2.7-5.4-5.4-12.6-5.6-13.8c-1.3-7.3,1.2-19.9,2.8-26.4c-1.9,0.9-4.8,1.9-9.2,2.1l-0.6,0.4
		C304.3,272.6,298.2,287.1,278.5,294.9z"/>
	<path class="st24" d="M122.5,256.5c0,0,2.5,6.7,16.9,10.4l-1.1-4.3C138.3,262.5,130.3,263,122.5,256.5z"/>
	<path class="st24" d="M322.7,256.5c0,0-2.3,6.7-15.8,10.4l1.1-4.3C308,262.5,315.5,263,322.7,256.5z"/>
	<path d="M749.8,646.2c3.8-9.2,7.3-41.8,7.3-41.8c3.7-36.8-1.3-64.2-1.3-64.2c-5.2-33.3-17-54.5-17-54.5
		C719.6,448,690.4,443,690.4,443c-32.5-6.8-50.5,10-50.5,10c-21.2,13.7-30.8,41.7-30.8,41.7l-4.2-9.3c-16.7-35-45.2-41.7-45.2-41.7
		c-30.3-7.3-49.5,6.6-49.5,6.6c-19,9.1-33.5,39.1-33.5,39.1c-3.7-14-22.7-31.7-22.7-31.7c-18-18.7-48.8-15.9-48.8-15.9
		c-9.6,0-20,5.3-20,5.3c-35,16.5-46.3,63.3-46.3,63.3c-6.4,11.5-9.8,63.3-9.8,63.3c-1,11,3.8,47.1,3.8,47.1
		c1.8,5.4,4.3,25.9,4.3,25.9c1.4,7-1.1,15.9-1.1,15.9c5.3,7.4,19.9,9.6,19.9,9.6c15,1.5,31.3-1.4,31.3-1.4
		c11.4-2.1,11.4-12.1,11.4-12.1l0.8-14.1c-0.3-8.3,8.1-10.3,11.8-10.7c1-0.1,2.1-0.1,3.1,0.2c11,2.5,10,9.1,10,9.1l1.9,18.4
		c0.9,9.9,15.5,10.3,15.5,10.3c24.5,2,32.6-1.6,32.6-1.6l8.4,2.1c13.4,2.4,29,0.5,29,0.5c19.1-1.6,17.5-12.8,17.5-12.8l0.8-14.5
		c-0.3-9,7.6-10,7.6-10l7.1-0.1c9.8-0.9,10.1,9.1,10.1,9.1l0.6,17.5c3.6,11.4,19.4,11,19.4,11c20.4,2.1,34.6-3.1,34.6-3.1l1.2,0.9
		c16.3,5.2,37.5,1.7,37.5,1.7c15.7-1.2,14.7-12.2,14.7-12.2l0.7-14.5c0.2-9,9.3-10,9.3-10c14.3-0.8,15,4.7,15,4.7
		c1.7,5.7,1.7,19.2,1.7,19.2c0.8,10.7,8,11.5,8,11.5c10.8,3.7,30.7,2.3,30.7,2.3c25-3.2,24.3-12,24.3-12c1.7-6.9-4.3-11.4-4.3-11.4
		C749.2,649.2,749.8,646.2,749.8,646.2z M589.6,544.7c0,0-13,13.7-43.2,15.5c0,0-15.3-0.2-18.3-1.2c0,0-37.1-3.2-40.1-28.8
		c0,0-2.8-11-1-24.3c1.2-9.2,4.6-19.5,12.7-28.1c0.6-0.6,1.2-1.2,1.7-1.9c2.3-2.6,10.5-11.3,20-13.6c0,0,25.7-9.3,45.7,2
		c0,0,26.7,12.5,29.8,39.7c0,0,0,0,0,0.1C597.1,506,599.7,532.6,589.6,544.7z"/>
	<path class="st25" d="M745.8,648c2.4,1.9,2.5-2.3,2.5-2.3l2.6-14.3c4.7-21.3,5.7-41.2,5.6-54.7c-0.1-10.8-0.8-17.5-0.8-17.5
		c-1.4-45.1-22.8-80-22.8-80c-26.8-45.8-72.3-33.8-72.3-33.8c-30.1,7.4-45.9,40.5-49,47.5c-0.3,0.7-0.7,1.3-1,1.9
		c-1.1,2.1,0.5,5.4,0.5,5.4c8.3,19,11.3,46.5,11.3,46.5c3.1,22.3,0.4,55.4,0,59.3c0,0.3,0,0.4,0,0.4c-1.3,19.6-5.9,36.6-7.3,41.5
		c-0.3,0.9-0.1,1.8,0.5,2.5c1.5,2.1,3.1,6,3.1,6c2,8.4-7.5,11.9-7.5,11.9c1.8,1.6,4.6,1.9,4.6,1.9c20,3.4,30.1,0.5,30.1,0.5
		c16-1.4,15.1-11,15.1-11l1-18.6c2.1-9.6,15.3-8.1,15.3-8.1c7.2-0.6,10.7,3.7,10.7,3.7c3.3,3.1,2.5,16.8,2.5,16.8
		c-0.5,10.2,3.6,13.7,3.6,13.7c10.8,5,20.1,4.4,20.1,4.4c26.5,1.1,34.2-7.5,34.2-7.5c6.4-6.1-3.1-13.4-3.1-13.4
		C741.4,647.3,745.8,648,745.8,648z M623.8,537.3c0,0-7.5-22.5,0-42.5l3.7-8.5c0,0,11.7-23.3,39.2-26.3c0,0,31.2-4.2,47.8,14.5
		c0,0,11.4,7.3,15.7,26.3c1.1,4.6,1.7,10,1.6,16.1c0,0,1,22.2-12.3,31.3c0,0-16,14.5-50.7,12.8c0,0-39-6.6-44.5-21.8
		C624,538.6,623.9,538,623.8,537.3z"/>
	<path class="st26" d="M745.4,650.6c0,0,9.6,7.3,3.1,13.4c0,0-7.7,8.6-34.2,7.5c0,0-9.4,0.6-20.1-4.4c0,0-4.1-3.5-3.6-13.7
		c0,0,0.8-13.6-2.5-16.8c0,0-3.5-4.4-10.7-3.7c0,0-13.1-1.5-15.3,8.1l-1,18.6c0,0,0.9,9.6-15.1,11c0,0-10.1,2.9-30.1-0.5
		c0,0-2.9-0.2-4.6-1.9c0,0,9.5-3.5,7.5-11.9c0,0-1.6-3.8-3.1-6c-0.5-0.7-0.7-1.6-0.5-2.5c1.5-5,6.1-21.9,7.3-41.5c0,0,0-0.1,0-0.4
		c4.2,4.8,16.7,13.8,51.2,16c0,0,40.8,2,68.8-23.8c0,0,8.6-9.6,14.1-21.5c0.1,13.5-0.8,33.4-5.6,54.7l-2.6,14.3c0,0-0.1,4.1-2.5,2.3
		C745.8,648,741.4,647.3,745.4,650.6z"/>
	<path class="st27" d="M691.2,563.5c-41.3,7-61-13.5-61-13.5c-3.5-3.5-5.2-7.4-5.9-10.8c5.5,15.2,44.5,21.8,44.5,21.8
		c34.7,1.7,50.7-12.8,50.7-12.8c13.3-9.2,12.3-31.3,12.3-31.3c0.1-6.1-0.6-11.4-1.6-16.1c3.6,6.3,3.1,16.7,3.1,16.7
		C736.4,557.3,691.2,563.5,691.2,563.5z"/>
	<path class="st28" d="M671.4,560.1v4.8l1.9,0.1v37.5h5.3V565h2.1v-5L671.4,560.1z M678.6,564.4h-5.2v-3.3h5.2V564.4z"/>
	<path class="st29" d="M726.3,535.7c-1,2.9-2.6,5.6-4.8,7.7c-5.8,5.5-20,15.1-48.1,15.6c0,0-32.3-1-45.5-17.5c0,0-7.6-11.9-5.4-31.8
		c0.5-5.1,1.8-10.8,3.9-16.9c0,0,11.5-30.8,45.3-31.3c0,0,40.5-3.3,54.5,33.3c0,0,1.7,4.7,2.6,11.9
		C729.8,514.3,729.9,524.9,726.3,535.7z"/>
	<path class="st30" d="M726.3,535.7c-1,2.9-2.6,5.6-4.8,7.7c-5.8,5.5-20,15.1-48.1,15.6c0,0-32.3-1-45.5-17.5c0,0-7.6-11.9-5.4-31.8
		c1.6,10.4,8.5,28.7,36.4,37.6c0,0,32.3,8.5,57-12.3c0,0,8.4-6.9,12.8-28.4C729.8,514.3,729.9,524.9,726.3,535.7z"/>
	<circle class="st8" cx="675.8" cy="507.4" r="32.9"/>
	<circle class="st29" cx="676.4" cy="506.1" r="25.2"/>
	<path class="st31" d="M621.9,555.9c-0.3-2.9-0.4-4.5-0.4-4.5c-1-20.9-10.2-47.9-10.2-47.9c-8.7-27.2-30.8-46.5-30.8-46.5
		c-18.8-16.3-48.3-12.8-48.3-12.8c-19.4,2-35.3,19.2-35.3,19.2c-27.3,25.2-33.5,83.7-33.5,83.7c-0.4,3-0.8,6-1,9
		c-0.7,7.5-0.9,14.9-0.9,22c0.2,24.1,3.7,43.2,4,44.4c0,0,0,0.1,0,0.1c0.6,5.9,5,23.9,5,23.9c-0.1,3.4,2.4,1.4,2.4,1.4
		c2.6,0.3,0.6,1.9,0.6,1.9c-6.1,4-6.3,9.3-6.3,9.3c1.3,8.1,11.5,10.6,11.5,10.6c15.6,3.5,35.8,1.2,35.8,1.2
		c14.8-2.6,13.1-13.2,13.1-13.2l1-17.8c4-9.1,13.8-7.2,13.8-7.2c7.4,0.1,10.4,2.6,10.4,2.6c5.3,2.8,4,15.1,4,15.1l0.9,12.3
		c2.1,4.1,5.4,6.1,5.4,6.1c7.9,2.5,19.6,2.8,19.6,2.8c12.8,0,23.3-2.5,23.3-2.5c12.5-3.3,11.3-10.9,11.3-10.9
		c-0.4-5.8-6.6-8.8-6.6-8.8c-2.2-2.5,1.7-1,1.7-1c2.4,0.8,2.4-2.4,2.4-2.4l3.7-18.9c0.3-1.4,0.6-2.8,0.9-4.3
		c3.1-16.5,3.9-32.6,3.8-45.3C622.8,567.9,622.3,560.4,621.9,555.9z M589.6,544.7c0,0-13,13.7-43.2,15.5c0,0-15.3-0.2-18.3-1.2
		c0,0-37.1-3.2-40.1-28.8c0,0-2.8-11-1-24.3c1.2-9.2,4.6-19.5,12.7-28.1c0.6-0.6,1.2-1.2,1.7-1.9c2.3-2.6,10.5-11.3,20-13.6
		c0,0,25.7-9.3,45.7,2c0,0,26.7,12.5,29.8,39.7c0,0,0,0,0,0.1C597.1,506,599.7,532.6,589.6,544.7z"/>
	<path class="st29" d="M595.4,520.8c0,0,0,4.8-1.6,10.8c-1.9,7-6.6,13-12.8,16.7c-7.3,4.3-19.5,9.4-37.3,9.8c0,0-23.3,2.3-43.8-11.2
		c0,0-15.3-7.6-11.3-41.8c0.1-0.8,0.2-1.6,0.3-2.4c0,0,3-19,21.3-32.3c0,0,24.1-17.1,52.4-5.8c3,1.2,5.8,2.7,8.3,4.6
		c7,5.1,20.6,17,24.2,35.2C596.1,509.3,596.3,514.8,595.4,520.8z"/>
	<path class="st30" d="M595.4,520.8c0,0,0,4.8-1.6,10.8c-1.9,7-6.6,13-12.8,16.7c-7.3,4.3-19.5,9.4-37.3,9.8c0,0-23.3,2.3-43.8-11.2
		c0,0-15.3-7.6-11.3-41.8c1.8,12.8,7.8,31.4,27.3,38.6c0,0,24,13.8,55.8-2c0,0,18.8-6,23.4-37.3
		C596.1,509.3,596.3,514.8,595.4,520.8z"/>
	<ellipse class="st8" cx="518" cy="511.8" rx="6.4" ry="14.8"/>
	<ellipse class="st8" cx="566.3" cy="511.8" rx="6.4" ry="14.8"/>
	<path class="st32" d="M599.4,520.3c1.8,30.3-28.5,38.7-28.5,38.7c-24,10.2-48.7,3.4-48.7,3.4c-32.3-9.4-35.2-27.7-35.2-27.7
		c-4.9-15.9-1.8-25.2-0.1-28.8c-1.8,13.3,1,24.3,1,24.3c3,25.7,40.1,28.8,40.1,28.8c3,1,18.3,1.2,18.3,1.2
		c30.2-1.8,43.2-15.5,43.2-15.5c10.1-12.1,7.5-38.7,7.3-40.6C601.1,512.2,599.4,520.3,599.4,520.3z"/>
	<path d="M538.3,560.2v5.2h3l0.1,37.2h1.1v-37.2l2.9,0.3v-5.4H538.3z M544.4,563.8h-4.8V561h4.8V563.8z"/>
	<path class="st33" d="M623.2,577.3c0.1,12.7-0.8,28.8-3.8,45.3c-0.3,1.4-0.6,2.8-0.9,4.3l-3.7,18.9c0,0,0,3.1-2.4,2.4
		c0,0-4-1.5-1.7,1c0,0,6.2,3,6.6,8.8c0,0,1.3,7.6-11.3,10.9c0,0-10.5,2.5-23.3,2.5c0,0-11.8-0.3-19.6-2.8c0,0-3.3-2-5.4-6.1
		l-0.9-12.3c0,0,1.3-12.4-4-15.1c0,0-3-2.5-10.4-2.6c0,0-9.8-1.9-13.8,7.2l-1,17.8c0,0,1.6,10.7-13.1,13.2c0,0-20.1,2.3-35.8-1.2
		c0,0-10.2-2.5-11.5-10.6c0,0,0.1-5.3,6.3-9.3c0,0,2-1.6-0.6-1.9c0,0-2.5,2-2.4-1.4c0,0-4.4-18-5-23.9c0,0,0,0,0-0.1
		c-0.2-1.2-3.8-20.3-4-44.4c4,7.6,16.6,27.9,41.9,36.7c0,0,51.3,21.5,100.2-12.2C603.9,602.5,616.2,591.4,623.2,577.3z"/>
	<path class="st34" d="M468.9,618.5c0,0-0.7,4-3.5,3.8c-0.1,0-0.1,0-0.2,0c-0.2-1.2-3.9-20.8-4-45.3v-0.4c0-6.6,0.2-13.6,0.9-20.7
		c0.9-0.4,2.3-0.4,3.2,2.1c0,0-0.4,11.3,0.1,25.5C465.9,594.7,466.8,607.6,468.9,618.5z"/>
	<path class="st34" d="M618.9,622.6c-0.1,0-0.2,0-0.2-0.1c-4.4-1.2-3.5-6-3.5-6c2.1-10.4,2.9-22.5,3.2-32.9
		c0.3-13.3-0.2-23.7-0.2-23.7c0.5-4,2.6-4.3,3.8-4C622.8,566.4,624.3,594,618.9,622.6z"/>
	<path class="st35" d="M465.5,583.6c0.4,11.1,1.3,24,3.4,34.9c0,0-0.7,4-3.5,3.8c-0.1-0.4-0.1-0.9-0.2-1.2c0,0,0,0,0-0.1
		c-0.2-1.2-3.8-20.1-4-44v-0.4C462.2,578.4,463.6,580.8,465.5,583.6z"/>
	<path class="st36" d="M622.8,576c0,12.7-0.8,28.8-3.8,45.3c-0.1,0.4-0.2,0.8-0.2,1.2c-4.4-1.2-3.5-6-3.5-6
		c2.1-10.4,2.9-22.5,3.2-32.9C619.9,581.2,621.4,578.7,622.8,576z"/>
	<polygon class="st37" points="371.4,540.8 379.4,556.6 444.8,556.6 452.2,540.8 	"/>
	<polygon class="st37" points="355.2,538.5 376,554.8 369.7,540.8 	"/>
	<g>
		<path class="st38" d="M380.8,480.3l-25.6,9.8c0.2-0.4,6.8-12.1,14.4-20c1.2-1.3,2.4-2.4,3.7-3.5l7.4,13.5L380.8,480.3z"/>
		<path class="st37" d="M380.7,480.2l-11.1-10c1.2-1.3,2.4-2.4,3.7-3.5L380.7,480.2z"/>
	</g>
	<g>
		<path class="st38" d="M443.1,480.3l25.7,9.8c-0.2-0.4-6.8-12.1-14.4-20c-1.2-1.3-2.4-2.4-3.7-3.5l-7.4,13.5L443.1,480.3z"/>
		<path class="st37" d="M443.2,480.2l11.1-10c-1.2-1.3-2.4-2.4-3.7-3.5L443.2,480.2z"/>
	</g>
	<g>
		<polygon class="st38" points="380.7,481.7 377.6,497.5 369.7,537.9 369.6,538.5 352,536.2 353.1,493 354.3,492.5 365.5,487.9 		
			"/>
		<polygon class="st8" points="380.7,481.7 377.6,497.5 374.2,506.5 378,484.5 365.5,487.9 		"/>
		<polygon class="st37" points="369.7,537.9 369.6,538.5 352,536.2 353.1,493 354.3,492.5 		"/>
	</g>
	<path class="st38" d="M448.8,465l-2.5,5.9l-4.2,10l-60.4-0.7l-3.1-7.2l-3.5-8C414.3,452.7,448.8,465,448.8,465z"/>
	<polygon class="st8" points="446.3,470.9 442.1,480.8 381.7,480.2 378.6,473 383.6,478.4 440.8,478.4 	"/>
	<polygon class="st38" points="453.6,539.5 370.2,539.5 372.2,529.3 381.7,481.7 442.3,481.7 452,531.4 	"/>
	<polygon class="st8" points="453.6,539.5 370.2,539.5 372.2,529.3 373.1,537.5 451.1,537.5 452,531.4 	"/>
	<path class="st39" d="M472.9,498.5c1-8.7-4.2-12.3-4.2-12.3c-10.7-19.1-20.3-23.4-24-24.4c-1.6-0.4-3.1-0.8-4.6-1.3
		c-24.3-7.3-59.5,0.8-59.5,0.8c-12.1,1.7-24.5,21.7-28.3,28.2c-0.7,1.3-1.1,2.7-1.2,4.2l-1,44l22.8,18.4c1.6,1.4,4.2,2.4,6.7,3
		c3,0.8,6.1,1.1,9.2,1.1h42.8c2.1,0,4.2-0.2,6.2-0.5c3.7-0.6,7.2-1.7,10.6-3.4c7.6-3.8,12.8-8.3,12.8-8.3c-2.3,25-0.5,54.4-0.5,54.4
		c0.2,1.8,0.4,3.6,0.6,5.5c2.4,19.6,8.3,41.8,8.3,41.8l-3.6,5.1c-2,10.3,5.3,12.6,5.3,12.6c3.6,1.5-3.6,2.5-3.6,2.5
		c-17.4,1.5-33.8-1.9-33.8-1.9c-8.8-3.6-7.3-18.9-7.3-18.9c-0.9-12.4-5-15-5-15c-7.5-3.4-17.9-1-17.9-1c-8.1,3.8-6.3,17.6-6.3,17.6
		c0.5,6.9-2.3,12.6-2.3,12.6c-4.9,6.5-23.9,6.9-23.9,6.9c-23,2.8-32.6-8.5-32.6-8.5c-4-5.9,4-12.1,4-12.1c2.9-3.1-0.5-2.1-0.5-2.1
		c-2.5,1-3.3-6.8-3.3-6.8c-4.8-14.7-7.2-47.8-7.2-47.8c-0.4-5.7-0.5-11.6-0.3-17.5c0.6-26.4,5.3-51.7,5.3-51.7
		c6.1-32.2,24.1-54.2,24.1-54.2c10.9-13.3,22.7-20.2,33.5-23.5c17.8-5.5,37-1.9,52.3,8.6c23.4,16.1,29.5,36.9,29.5,36.9L472.9,498.5
		z"/>
	<path class="st40" d="M438,559.7c-5.6,2.4-16.9,3.6-16.9,3.6c-13.8,1.6-24.7-1.2-30.3-3.2h41C433.9,560.2,436,560,438,559.7z"/>
	<path d="M407.2,560.2v4.3h1.8l0.3,38.1h6.1v-37.8h1.2v-4.6H407.2z M414.8,563.3h-5.6v-2.3h5.6V563.3z"/>
	<path class="st41" d="M467.7,669.9c-17.4,1.5-33.8-1.9-33.8-1.9c-8.8-3.6-7.3-18.9-7.3-18.9c-0.9-12.4-5-15-5-15
		c-7.5-3.4-17.9-1-17.9-1c-8.1,3.8-6.3,17.6-6.3,17.6c0.5,6.9-2.3,12.6-2.3,12.6c-4.9,6.5-23.9,6.9-23.9,6.9
		c-23,2.8-32.6-8.5-32.6-8.5c-4-5.9,4-12.1,4-12.1c2.9-3.1-0.5-2.1-0.5-2.1c-2.5,1-3.3-6.8-3.3-6.8c-4.8-14.7-7.2-47.8-7.2-47.8
		c-0.4-5.7-0.5-11.6-0.3-17.5c2.8,6,13.1,26,31.2,34c0,0,20.3,14.1,66.3,10.8c0,0,22.2-3,32.5-12.3c2.4,19.6,8.3,41.8,8.3,41.8
		l-3.6,5.1c-2,10.3,5.3,12.6,5.3,12.6C474.9,668.9,467.7,669.9,467.7,669.9z"/>
	<polygon class="st37" points="454.5,540.8 447.4,554.7 461.9,544.7 461.9,540.8 	"/>
	<path class="st38" d="M471.4,504.1c0,0-5.5,12.3-8.8,33l-8,1.4h0c-1.5-9.9-3.1-18.7-4.6-26.2c-0.4-1.8-0.7-3.6-1-5.3c0,0,0,0,0,0
		c-3.3-16.3-5.9-25.3-5.9-25.3l22.5,9.3c0,0,0,0,0,0l3.8,1.6l1.1,0.5L471.4,504.1z"/>
	<path class="st8" d="M446.3,485.1c1.5,7.7,2.4,16.9,2.8,21.9c-3.3-16.3-5.9-25.3-5.9-25.3l22.5,9.3
		C458.2,490,446.3,485.1,446.3,485.1z"/>
	<path class="st37" d="M471.4,504.1c0,0-5.5,12.3-8.8,33l-8,1.4c5.2-20.5,12.8-40.8,14.8-46l1.1,0.5L471.4,504.1z"/>
</g>
</svg>
